<?xml version="1.0" encoding="UTF-8" standalone="no"?>
<!-- Created with Inkscape (http://www.inkscape.org/) -->

<svg
   xmlns:dc="http://purl.org/dc/elements/1.1/"
   xmlns:cc="http://creativecommons.org/ns#"
   xmlns:rdf="http://www.w3.org/1999/02/22-rdf-syntax-ns#"
   xmlns:svg="http://www.w3.org/2000/svg"
   xmlns="http://www.w3.org/2000/svg"
   xmlns:inkscape="http://www.inkscape.org/namespaces/inkscape"
   version="1.0"
   width="535"
   height="328"
   id="svg2">
  <metadata
     id="metadata31">
    <rdf:RDF>
      <cc:Work
         rdf:about="">
        <dc:format>image/svg+xml</dc:format>
        <dc:type
           rdf:resource="http://purl.org/dc/dcmitype/StillImage" />
        <dc:title></dc:title>
      </cc:Work>
    </rdf:RDF>
  </metadata>
  <defs
     id="defs4">
    <inkscape:path-effect
       effect="spiro"
       id="path-effect4483" />
    <marker
       refX="0"
       refY="0"
       orient="auto"
       id="Arrow2Mend"
       style="overflow:visible">
      <path
         d="M 8.7185878,4.0337352 -2.2072895,0.01601326 8.7185884,-4.0017078 c -1.7454984,2.3720609 -1.7354408,5.6174519 -6e-7,8.035443 z"
         transform="scale(-0.6,-0.6)"
         id="path3874"
         style="fill-rule:evenodd;stroke-width:0.625;stroke-linejoin:round" />
    </marker>
    <marker
       refX="0"
       refY="0"
       orient="auto"
       id="Arrow2Send"
       style="overflow:visible">
      <path
         d="M 8.7185878,4.0337352 -2.2072895,0.01601326 8.7185884,-4.0017078 c -1.7454984,2.3720609 -1.7354408,5.6174519 -6e-7,8.035443 z"
         transform="matrix(-0.3,0,0,-0.3,0.69,0)"
         id="path3880"
         style="fill-rule:evenodd;stroke-width:0.625;stroke-linejoin:round" />
    </marker>
  </defs>
  <rect
     width="535"
     height="328"
     x="0"
     y="0"
     id="rect13481"
     style="fill:#ffffff;fill-opacity:1;stroke:none" />
  <path
     d="m 33.200745,4.7790051 180.534675,0 c 15.75059,0 28.43066,8.2813489 28.43066,18.5680469 l 0,281.305888 c 0,10.2867 -12.68007,18.56805 -28.43066,18.56805 l -180.534675,0 c -15.750585,0 -28.4306587,-8.28135 -28.4306587,-18.56805 l 0,-281.305888 c 0,-10.286698 12.6800737,-18.5680469 28.4306587,-18.5680469 z"
     id="rect13360"
     style="fill:#e6e6e6;fill-opacity:1;stroke:none" />
  <path
     d="M 215.50098,86.017985 348.87237,160.53955"
     id="path3073"
     style="fill:none;stroke:#000000;stroke-width:3;stroke-linecap:butt;stroke-linejoin:miter;stroke-miterlimit:4;stroke-opacity:1;stroke-dasharray:none;marker-end:url(#Arrow2Mend)" />
  <path
     d="m 47.586916,218.28453 149.908674,0 c 11.08,0 20,8.92 20,20 l 0,35.76144 c 0,11.08 -8.92,20 -20,20 l -149.908674,0 c -11.08,0 -20,-8.92 -20,-20 l 0,-35.76144 c 0,-11.08 8.92,-20 20,-20 z"
     id="path11879"
     style="fill:#ffffff;fill-opacity:1;stroke:#000000;stroke-width:2;stroke-miterlimit:4;stroke-dasharray:none" />
  <path
     d="M 353.30869,198.13708 222.18801,249.16535"
     id="path4473"
     style="fill:none;stroke:#000000;stroke-width:3;stroke-linecap:butt;stroke-linejoin:miter;stroke-miterlimit:4;stroke-opacity:1;stroke-dasharray:none;marker-end:url(#Arrow2Mend)" />
  <path
     d="m 432.10251,145.20186 c -53.29345,0 -96.53126,16.40347 -96.53125,36.59375 0,20.19029 43.23781,36.56249 96.53125,36.5625 53.29345,0 96.5625,-16.37221 96.5625,-36.5625 0,-20.19029 -43.26904,-36.59375 -96.5625,-36.59375 z"
     id="path12081"
     style="fill:#ffffff;fill-opacity:1;stroke:#000000;stroke-width:2;stroke-miterlimit:4;stroke-dasharray:none" />
  <path
     d="m 45.439882,66.629093 149.908678,0 c 11.08,0 20,8.92 20,20 l 0,35.761437 c 0,11.08 -8.92,20 -20,20 l -149.908678,0 c -11.08,0 -20,-8.92 -20,-20 l 0,-35.761437 c 0,-11.08 8.92,-20 20,-20 z"
     id="path11881"
     style="fill:#ffffff;fill-opacity:1;stroke:#000000;stroke-width:2;stroke-miterlimit:4;stroke-dasharray:none" />
  <text
     x="125.19953"
     y="46.67857"
     id="text3029"
     xml:space="preserve"
     style="font-size:36px;font-style:normal;font-variant:normal;font-weight:normal;font-stretch:normal;text-align:center;line-height:125%;letter-spacing:0px;word-spacing:0px;writing-mode:lr-tb;text-anchor:middle;fill:#000000;fill-opacity:1;stroke:none;font-family:Sans;-inkscape-font-specification:Sans"><tspan
       x="125.19953"
       y="46.67857"
       id="tspan3031">Text terminal</tspan></text>
  <text
     x="120.27703"
     y="113.33794"
     id="text3033"
     xml:space="preserve"
     style="font-size:32px;font-style:normal;font-variant:normal;font-weight:normal;font-stretch:normal;text-align:center;line-height:125%;letter-spacing:0px;word-spacing:0px;writing-mode:lr-tb;text-anchor:middle;fill:#000000;fill-opacity:1;stroke:none;font-family:Sans;-inkscape-font-specification:Sans"><tspan
       x="120.27703"
       y="113.33794"
       id="tspan3035">Keyboard</tspan></text>
  <text
     x="121.4475"
     y="264.99338"
     id="text3037"
     xml:space="preserve"
     style="font-size:32px;font-style:normal;font-variant:normal;font-weight:normal;font-stretch:normal;text-align:center;line-height:125%;letter-spacing:0px;word-spacing:0px;writing-mode:lr-tb;text-anchor:middle;fill:#000000;fill-opacity:1;stroke:none;font-family:Sans;-inkscape-font-specification:Sans"><tspan
       x="121.4475"
       y="264.99338"
       id="tspan3039">Display</tspan></text>
  <text
     x="431.91501"
     y="190.11592"
     id="text3041"
     xml:space="preserve"
     style="font-size:32px;font-style:normal;font-variant:normal;font-weight:normal;font-stretch:normal;text-align:center;line-height:125%;letter-spacing:0px;word-spacing:0px;writing-mode:lr-tb;text-anchor:middle;fill:#000000;fill-opacity:1;stroke:none;font-family:Sans;-inkscape-font-specification:Sans"><tspan
       x="431.91501"
       y="190.11592"
       id="tspan3043">Program</tspan></text>
  <text
     x="333.80951"
     y="110.16703"
     id="text3045"
     xml:space="preserve"
     style="font-size:32px;font-style:normal;font-variant:normal;font-weight:normal;font-stretch:normal;text-align:center;line-height:125%;letter-spacing:0px;word-spacing:0px;writing-mode:lr-tb;text-anchor:middle;fill:#000000;fill-opacity:1;stroke:none;font-family:Sans;-inkscape-font-specification:Sans"><tspan
       x="333.80951"
       y="110.16703"
       id="tspan3047"><tspan
         id="tspan3069"
         style="font-weight:bold;-inkscape-font-specification:Sans Bold">① </tspan><tspan
         id="tspan3049"
         style="font-size:28px;font-style:normal;font-variant:normal;font-weight:bold;font-stretch:normal;font-family:Monospace;-inkscape-font-specification:Monospace Bold">stdin</tspan></tspan></text>
  <text
     x="331.39862"
     y="260.10187"
     id="text3051"
     xml:space="preserve"
     style="font-size:32px;font-style:normal;font-variant:normal;font-weight:normal;font-stretch:normal;text-align:center;line-height:125%;letter-spacing:0px;word-spacing:0px;writing-mode:lr-tb;text-anchor:middle;fill:#000000;fill-opacity:1;stroke:none;font-family:Sans;-inkscape-font-specification:Sans"><tspan
       x="331.39862"
       y="260.10187"
       id="tspan3053"><tspan
         id="tspan3067"
         style="font-weight:bold;-inkscape-font-specification:Sans Bold">②</tspan><tspan
         id="tspan3055"
         style="font-size:28px;font-style:normal;font-variant:normal;font-weight:bold;font-stretch:normal;font-family:Monospace;-inkscape-font-specification:Monospace Bold"> stdout</tspan></tspan></text>
  <text
     x="460.67889"
     y="320.69489"
     id="text3057"
     xml:space="preserve"
     style="font-size:32px;font-style:normal;font-variant:normal;font-weight:normal;font-stretch:normal;text-align:center;line-height:125%;letter-spacing:0px;word-spacing:0px;writing-mode:lr-tb;text-anchor:middle;fill:#000000;fill-opacity:1;stroke:none;font-family:Sans;-inkscape-font-specification:Sans"><tspan
       x="460.67889"
       y="320.69489"
       id="tspan3059"><tspan
         id="tspan4479"
         style="font-size:32px;font-style:normal;font-variant:normal;font-weight:bold;font-stretch:normal;font-family:Sans;-inkscape-font-specification:Sans Bold">③</tspan><tspan
         id="tspan3061"
         style="font-size:28px;font-style:normal;font-variant:normal;font-weight:bold;font-stretch:normal;font-family:Monospace;-inkscape-font-specification:Monospace Bold"> stderr</tspan></tspan></text>
  <path
     d="m 461.13557,217.05352 c -8.24512,20.23661 -20.6417,38.77125 -36.19651,54.1189 -26.82631,26.46904 -63.1553,43.09876 -100.7215,46.10562 -37.56621,3.00686 -76.07786,-7.63249 -106.7729,-29.49742"
     id="path4481"
     style="fill:none;stroke:#000000;stroke-width:3;stroke-linecap:butt;stroke-linejoin:miter;stroke-miterlimit:4;stroke-opacity:1;stroke-dasharray:none;marker-end:url(#Arrow2Mend)" />
</svg>
