<?xml version="1.0" encoding="UTF-8" standalone="no"?>
<!-- Created with Inkscape (http://www.inkscape.org/) -->

<svg
   xmlns:dc="http://purl.org/dc/elements/1.1/"
   xmlns:cc="http://creativecommons.org/ns#"
   xmlns:rdf="http://www.w3.org/1999/02/22-rdf-syntax-ns#"
   xmlns:svg="http://www.w3.org/2000/svg"
   xmlns="http://www.w3.org/2000/svg"
   xmlns:sodipodi="http://sodipodi.sourceforge.net/DTD/sodipodi-0.dtd"
   xmlns:inkscape="http://www.inkscape.org/namespaces/inkscape"
   width="64px"
   height="64px"
   id="svg3022"
   version="1.1"
   inkscape:version="0.48.5 r10040"
   sodipodi:docname="hcc_logo_blue.svg"
   inkscape:export-filename="C:\Documents and Settings\David Ma\My Documents\社团\hcc_logo_word.png"
   inkscape:export-xdpi="90"
   inkscape:export-ydpi="90">
  <defs
     id="defs3024" />
  <sodipodi:namedview
     id="base"
     pagecolor="#ffffff"
     bordercolor="#666666"
     borderopacity="1.0"
     inkscape:pageopacity="0.0"
     inkscape:pageshadow="2"
     inkscape:zoom="1.4142136"
     inkscape:cx="12.880411"
     inkscape:cy="73.380977"
     inkscape:current-layer="layer1"
     showgrid="true"
     inkscape:document-units="px"
     inkscape:grid-bbox="true"
     inkscape:window-width="1280"
     inkscape:window-height="744"
     inkscape:window-x="-4"
     inkscape:window-y="-4"
     inkscape:window-maximized="1" />
  <metadata
     id="metadata3027">
    <rdf:RDF>
      <cc:Work
         rdf:about="">
        <dc:format>image/svg+xml</dc:format>
        <dc:type
           rdf:resource="http://purl.org/dc/dcmitype/StillImage" />
        <dc:title />
      </cc:Work>
    </rdf:RDF>
  </metadata>
  <g
     id="layer1"
     inkscape:label="Layer 1"
     inkscape:groupmode="layer">
    <rect
       style="fill:#004455;fill-opacity:1;stroke:none"
       id="rect3041"
       width="4.6815286"
       height="29.61067"
       x="0"
       y="23.925447"
       ry="0"
       inkscape:export-filename="C:\Documents and Settings\David Ma\My Documents\社团\pub\login.png"
       inkscape:export-xdpi="360"
       inkscape:export-ydpi="360" />
    <rect
       style="fill:#0088aa;fill-opacity:1;stroke:none"
       id="rect3041-0"
       width="4.6815286"
       height="15.214968"
       x="15.763575"
       y="35.586872"
       ry="0"
       inkscape:export-filename="C:\Documents and Settings\David Ma\My Documents\社团\pub\login.png"
       inkscape:export-xdpi="360"
       inkscape:export-ydpi="360" />
    <rect
       style="fill:#006680;fill-opacity:1;stroke:none"
       id="rect3041-0-9"
       width="4.6578641"
       height="15.793252"
       x="30.905664"
       y="-20.502201"
       ry="0"
       transform="matrix(-0.0014863,0.9999989,-0.99999888,-0.00149869,0,0)"
       inkscape:export-filename="C:\Documents and Settings\David Ma\My Documents\社团\pub\login.png"
       inkscape:export-xdpi="360"
       inkscape:export-ydpi="360" />
    <rect
       style="fill:#0088aa;fill-opacity:1;stroke:none"
       id="rect3041-0-9-2"
       width="4.6297717"
       height="15.200463"
       x="22.502832"
       y="35.623447"
       ry="0"
       transform="matrix(0.99999503,-0.00315192,0.00340647,0.9999942,0,0)"
       inkscape:export-filename="C:\Documents and Settings\David Ma\My Documents\社团\pub\login.png"
       inkscape:export-xdpi="360"
       inkscape:export-ydpi="360" />
    <rect
       style="fill:#006680;fill-opacity:1;stroke:none"
       id="rect3041-0-9-1"
       width="4.657867"
       height="19.608723"
       x="30.888142"
       y="-42.278839"
       ry="0"
       transform="matrix(-0.00184537,0.9999983,-0.99999927,-0.00120707,0,0)"
       inkscape:export-filename="C:\Documents and Settings\David Ma\My Documents\社团\pub\login.png"
       inkscape:export-xdpi="360"
       inkscape:export-ydpi="360" />
    <rect
       style="fill:#00aad4;fill-opacity:1;stroke:none"
       id="rect3041-0-9-1-7"
       width="4.6578636"
       height="14.983674"
       x="46.036705"
       y="-42.327396"
       ry="0"
       transform="matrix(-0.00141011,0.99999901,-0.99999875,-0.00157966,0,0)"
       inkscape:export-filename="C:\Documents and Settings\David Ma\My Documents\社团\pub\login.png"
       inkscape:export-xdpi="360"
       inkscape:export-ydpi="360" />
    <rect
       style="fill:#0088aa;fill-opacity:1;stroke:none"
       id="rect3041-0-9-2-4"
       width="4.6297717"
       height="15.200463"
       x="44.327339"
       y="35.672157"
       ry="0"
       transform="matrix(0.99999503,-0.00315192,0.00340647,0.9999942,0,0)"
       inkscape:export-filename="C:\Documents and Settings\David Ma\My Documents\社团\pub\login.png"
       inkscape:export-xdpi="360"
       inkscape:export-ydpi="360" />
    <rect
       style="fill:#006680;fill-opacity:1;stroke:none"
       id="rect3041-0-9-1-0"
       width="4.657867"
       height="19.608723"
       x="30.841719"
       y="-64.10334"
       ry="0"
       transform="matrix(-0.00184537,0.9999983,-0.99999927,-0.00120707,0,0)"
       inkscape:export-filename="C:\Documents and Settings\David Ma\My Documents\社团\pub\login.png"
       inkscape:export-xdpi="360"
       inkscape:export-ydpi="360" />
    <rect
       style="fill:#00aad4;fill-opacity:1;stroke:none"
       id="rect3041-0-9-1-7-9"
       width="4.6578636"
       height="14.983674"
       x="45.982151"
       y="-64.151932"
       ry="0"
       transform="matrix(-0.00141011,0.99999901,-0.99999875,-0.00157966,0,0)"
       inkscape:export-filename="C:\Documents and Settings\David Ma\My Documents\社团\pub\login.png"
       inkscape:export-xdpi="360"
       inkscape:export-ydpi="360" />
    <path
       style="fill:#00ccff;fill-opacity:1;stroke:none"
       d="M 54.470773,27.528501 C 52.452193,27.38424 50.63166,26.533738 49.243565,25.086495 48.06112,23.853664 47.319224,22.302802 47.095234,20.59561 c -0.08451,-0.64409 -0.03402,-1.957657 0.09916,-2.5798 0.579385,-2.706612 2.445857,-4.882206 5.005977,-5.835059 0.475103,-0.176828 1.182695,-0.37134 1.218776,-0.335031 0.02265,0.02279 0.368065,1.771229 0.368065,1.863075 0,0.04321 -0.102465,0.09031 -0.280749,0.129052 -0.933214,0.202825 -2.008997,0.819808 -2.770868,1.58915 -1.58764,1.603212 -2.133487,4.009686 -1.39424,6.146785 0.594611,1.718971 2.058746,3.143535 3.812408,3.709371 1.081924,0.349092 2.357658,0.367717 3.459882,0.05051 0.579802,-0.166859 1.418115,-0.580775 1.885262,-0.930846 0.465675,-0.348968 1.097439,-0.998113 1.388457,-1.426652 0.46614,-0.686425 0.8415,-1.66368 0.982542,-2.558067 0.132757,-0.841894 -0.01604,-2.129883 -0.341406,-2.955371 -0.435955,-1.106022 -1.268116,-2.147721 -2.224899,-2.785125 -0.214834,-0.143121 -0.398264,-0.267521 -0.407621,-0.276444 -0.0093,-0.0089 0.195643,-0.402435 0.455555,-0.874471 0.310892,-0.56462 0.492109,-0.846508 0.529685,-0.823939 1.723768,1.035302 2.873722,2.403017 3.549858,4.222081 0.517266,1.391644 0.602122,3.197384 0.219619,4.67351 -0.582605,2.248349 -2.152793,4.155514 -4.24278,5.153321 -0.936805,0.447252 -1.777068,0.671549 -2.848255,0.760303 -0.56585,0.04689 -0.646895,0.04812 -1.088891,0.01653 l 0,0 z"
       id="path2990"
       inkscape:connector-curvature="0"
       inkscape:export-filename="C:\Documents and Settings\David Ma\My Documents\社团\pub\login.png"
       inkscape:export-xdpi="360"
       inkscape:export-ydpi="360" />
    <path
       style="fill:#00ccff;fill-opacity:1;stroke:none"
       d="m 54.153405,27.479108 c -0.08056,-0.01027 -0.377179,-0.06158 -0.659148,-0.113991 -3.096766,-0.575626 -5.5713,-3.000914 -6.276113,-6.151211 -0.108815,-0.4864 -0.151208,-2.041513 -0.07301,-2.678493 0.325385,-2.650351 2.107616,-5.022615 4.615841,-6.143985 0.497452,-0.222399 1.441685,-0.519562 1.571482,-0.494565 0.06953,0.01339 0.116632,0.166655 0.245081,0.797359 0.221108,1.085676 0.234817,1.032439 -0.307113,1.192638 -2.095264,0.619375 -3.679526,2.354288 -4.149393,4.543972 -0.121448,0.565954 -0.143853,1.542397 -0.04869,2.121834 0.386054,2.350787 2.139541,4.24826 4.495155,4.864269 0.558722,0.146108 1.782808,0.183379 2.412662,0.07346 0.78671,-0.137295 1.666754,-0.496649 2.364655,-0.965578 0.427868,-0.28749 1.267266,-1.124179 1.548604,-1.543605 0.435943,-0.64992 0.738045,-1.380964 0.922495,-2.232315 0.187192,-0.863992 0.103411,-2.18121 -0.196099,-3.083259 -0.134755,-0.405842 -0.481746,-1.076973 -0.761822,-1.473476 -0.329195,-0.466042 -0.985595,-1.123805 -1.448443,-1.451452 -0.219395,-0.155307 -0.418098,-0.298712 -0.44156,-0.318674 -0.04472,-0.03805 0.419698,-0.959402 0.721046,-1.430485 l 0.175662,-0.274604 0.280952,0.182036 c 0.734761,0.476072 1.570037,1.228968 2.059816,1.85666 0.516011,0.66132 0.995211,1.562257 1.266595,2.381309 0.511224,1.542919 0.51913,3.354742 0.02129,4.882586 -0.520916,1.598699 -1.561923,3.031949 -2.899641,3.992197 -0.822219,0.590209 -2.046963,1.134896 -2.974613,1.322916 -0.780066,0.158108 -1.86219,0.221509 -2.465706,0.144465 z"
       id="path2992"
       inkscape:connector-curvature="0"
       inkscape:export-filename="C:\Documents and Settings\David Ma\My Documents\社团\pub\login.png"
       inkscape:export-xdpi="360"
       inkscape:export-ydpi="360" />
    <path
       style="fill:#00ccff;fill-opacity:1;stroke:none"
       d="m 54.697536,20.16266 c -0.479502,-0.0899 -0.882073,-0.173702 -0.894603,-0.186234 -0.01614,-0.01614 1.537356,-8.837361 1.567609,-8.901308 0.004,-0.0085 1.903782,0.330154 1.91559,0.341583 0.0043,0.0041 -0.351867,2.007037 -0.791549,4.450771 -0.439682,2.443735 -0.800263,4.448646 -0.801292,4.45536 -0.0035,0.0227 -0.122021,0.0036 -0.995755,-0.160172 l 0,0 z"
       id="path2994"
       inkscape:connector-curvature="0"
       inkscape:export-filename="C:\Documents and Settings\David Ma\My Documents\社团\pub\login.png"
       inkscape:export-xdpi="360"
       inkscape:export-ydpi="360" />
  </g>
</svg>
